<svg xmlns="http://www.w3.org/2000/svg" viewBox="0 0 500 500">
  <rect width="480" height="480" style="fill: rgb(255, 255, 255);" rx="100" ry="100" x="10" y="10"></rect>
  <g transform="matrix(0.070524, 0, 0, -0.070524, -186.312622, 766.028992)" fill="#000000" stroke="none" style="">
    <path d="M6177 9849 c-866 -49 -1663 -557 -2056 -1311 -198 -379 -292 -817
-262 -1208 11 -141 45 -357 57 -369 4 -3 4 5 1 19 -34 149 -33 503 3 705 146
841 713 1500 1526 1774 241 81 442 113 704 113 262 1 450 -29 690 -108 866
-287 1464 -1087 1516 -2029 12 -217 -29 -508 -102 -716 -114 -330 -282 -538
-529 -659 -164 -81 -235 -95 -465 -95 -168 0 -209 3 -300 23 -235 53 -409 122
-840 332 -493 241 -673 310 -942 365 -507 104 -999 4 -1465 -297 -96 -62 -126
-89 -50 -45 214 124 418 204 656 254 116 25 145 27 356 28 200 0 245 -3 341
-23 278 -56 507 -148 905 -363 548 -295 858 -411 1201 -448 631 -69 1153 210
1430 764 91 180 160 406 189 615 16 119 17 446 0 560 -112 777 -542 1419
-1206 1801 -409 235 -877 345 -1358 318z"></path>
    <path d="M5685 8655 c-187 -41 -361 -177 -446 -350 -51 -105 -69 -180 -69
-290 0 -115 20 -198 70 -295 160 -306 529 -432 838 -285 76 36 186 116 197
142 4 12 2 13 -8 5 -29 -24 -154 -64 -231 -73 -212 -26 -444 81 -562 258 -60
90 -96 207 -96 314 0 108 14 172 58 264 72 152 209 267 367 310 l52 14 -55 0
c-30 -1 -82 -7 -115 -14z"></path>
    <path d="M8539 6208 c-70 -138 -242 -358 -391 -504 -207 -201 -410 -343 -673
-470 -243 -118 -505 -194 -785 -229 -160 -19 -474 -19 -650 0 -505 57 -1010
245 -1428 531 -50 35 -92 60 -92 55 0 -10 147 -152 240 -232 125 -107 331
-244 491 -325 178 -90 472 -186 694 -225 169 -30 510 -37 685 -15 450 59 891
247 1237 527 99 80 271 252 349 349 113 139 278 406 342 553 18 43 5 32 -19
-15z"></path>
    <path d="M4545 6154 c-271 -27 -517 -102 -736 -225 -116 -65 -165 -100 -90
-63 298 144 660 208 979 173 306 -33 576 -126 1039 -358 444 -222 674 -304
963 -347 151 -22 401 -15 542 15 290 62 564 205 805 420 102 91 154 148 72 79
-125 -106 -337 -226 -505 -287 -172 -63 -280 -83 -486 -88 -383 -11 -642 60
-1221 334 -438 207 -658 284 -937 328 -103 16 -346 27 -425 19z"></path>
  </g>
</svg>